<?xml version="1.0" encoding="utf-8"?>
<!-- Generator: Adobe Illustrator 26.0.1, SVG Export Plug-In . SVG Version: 6.00 Build 0)  -->
<svg version="1.1" id="Layer_1" xmlns="http://www.w3.org/2000/svg" xmlns:xlink="http://www.w3.org/1999/xlink" x="0px" y="0px"
	 viewBox="0 0 700 700" style="enable-background:new 0 0 700 700;" xml:space="preserve">
<style type="text/css">
	.st0{fill-rule:evenodd;clip-rule:evenodd;}
	.st1{fill:none;stroke:#000000;stroke-width:11.2;stroke-miterlimit:22.4;}
</style>
<path class="st0" d="M260,346.2c-2.2,2.2-2.2,5.7,0,7.8l67.7,67c5.3,5.3,13.2-2.6,7.9-7.9l-53.7-53.6c-2.2-2.2-1.4-4,1.6-4h135.1
	c3.1,0,5.6-2.5,5.6-5.6c0-3.1-2.5-5.6-5.6-5.6H283.5c-3.1,0-3.8-1.8-1.6-4l53.7-53.6c5.3-5.3-2.6-13.2-7.9-7.9L260,346.2z"/>
<path class="st1" d="M341.2,182c92.8,0,168,75.2,168,168s-75.2,168-168,168s-168-75.2-168-168S248.4,182,341.2,182"/>
</svg>
