<?xml version="1.0" encoding="utf-8"?>
<!-- Generator: Adobe Illustrator 26.0.1, SVG Export Plug-In . SVG Version: 6.00 Build 0)  -->
<svg version="1.1" id="Layer_1" xmlns="http://www.w3.org/2000/svg" xmlns:xlink="http://www.w3.org/1999/xlink" x="0px" y="0px"
	 viewBox="0 0 700 700" style="enable-background:new 0 0 700 700;" xml:space="preserve">
<style type="text/css">
	.st0{fill-rule:evenodd;clip-rule:evenodd;}
</style>
<g>
	<path class="st0" d="M350,81.7C201.9,81.7,81.7,201.9,81.7,350S201.9,618.3,350,618.3S618.3,498.1,618.3,350S498.1,81.7,350,81.7
		L350,81.7z M350,105c135.2,0,245,109.8,245,245S485.2,595,350,595S105,485.2,105,350S214.8,105,350,105z"/>
	<path d="M462,338.8v-56c0-61.8-50.2-112-112-112s-112,50.2-112,112v56c-18.5,0-33.6,15.1-33.6,33.6v123.2
		c0,18.5,15.1,33.6,33.6,33.6h224c18.5,0,33.6-15.1,33.6-33.6V372.4C495.6,353.9,480.5,338.8,462,338.8L462,338.8z M260.4,282.8
		c0-49.4,40.2-89.6,89.6-89.6c49.4,0,89.6,40.2,89.6,89.6v56H260.4L260.4,282.8z M473.2,495.6c0,6.2-5,11.2-11.2,11.2H238
		c-6.2,0-11.2-5-11.2-11.2V372.4c0-6.2,5-11.2,11.2-11.2h224c6.2,0,11.2,5,11.2,11.2V495.6z M350,383.6c-18.5,0-33.6,15.1-33.6,33.6
		c0,14.6,9.4,27,22.4,31.6l0,24.4c0,6.2,5,11.2,11.2,11.2s11.2-5,11.2-11.2v-24.4c13-4.6,22.4-17,22.4-31.6
		C383.6,398.7,368.5,383.6,350,383.6L350,383.6z M350,428.4c-6.2,0-11.2-5-11.2-11.2c0-6.2,5-11.2,11.2-11.2s11.2,5,11.2,11.2
		C361.2,423.4,356.2,428.4,350,428.4z"/>
</g>
</svg>
