<?xml version="1.0" encoding="utf-8"?>
<!-- Generator: Adobe Illustrator 26.0.1, SVG Export Plug-In . SVG Version: 6.00 Build 0)  -->
<svg version="1.1" id="Layer_1" xmlns="http://www.w3.org/2000/svg" xmlns:xlink="http://www.w3.org/1999/xlink" x="0px" y="0px"
	 viewBox="0 0 700 700" style="enable-background:new 0 0 700 700;" xml:space="preserve">
<style type="text/css">
	.st0{fill-rule:evenodd;clip-rule:evenodd;}
</style>
<g>
	<path class="st0" d="M350,81.7C201.9,81.7,81.7,201.9,81.7,350S201.9,618.3,350,618.3S618.3,498.1,618.3,350S498.1,81.7,350,81.7
		L350,81.7z M350,105c135.2,0,245,109.8,245,245S485.2,595,350,595S105,485.2,105,350S214.8,105,350,105z"/>
	<path class="st0" d="M350,175c-57.9,0-105,47.1-105,105s47.1,105,105,105S455,338,455,280S407.9,175,350,175z M350,198.3
		c45.1,0,81.7,36.6,81.7,81.7s-36.6,81.7-81.7,81.7s-81.7-36.6-81.7-81.7S304.9,198.3,350,198.3z"/>
	<path class="st0" d="M196.9,493.1c39.8-38,93.7-61.4,153.1-61.4s113.3,23.4,153.1,61.4c4.7,4.5,12,4.3,16.5-0.4
		c4.4-4.7,4.3-12-0.4-16.5c-44-42-103.6-67.9-169.2-67.9s-125.2,25.8-169.2,67.9c-4.7,4.5-4.8,11.8-0.4,16.5
		C184.9,497.3,192.3,497.5,196.9,493.1L196.9,493.1z"/>
</g>
</svg>
