<?xml version="1.0" encoding="utf-8"?>
<!-- Generator: Adobe Illustrator 26.0.1, SVG Export Plug-In . SVG Version: 6.00 Build 0)  -->
<svg version="1.1" id="Layer_1" xmlns="http://www.w3.org/2000/svg" xmlns:xlink="http://www.w3.org/1999/xlink" x="0px" y="0px"
	 viewBox="0 0 700 700" style="enable-background:new 0 0 700 700;" xml:space="preserve">
<style type="text/css">
	.st0{fill-rule:evenodd;clip-rule:evenodd;fill:#606060;}
</style>
<path class="st0" d="M350,122.5c-56.6,0-109,23.5-151.4,52.2c-62.1,42-102.5,94.5-102.5,94.5L87.8,280l8.3,10.8
	c0,0,40.3,52.5,102.5,94.5C241,414,293.4,437.5,350,437.5s109-23.5,151.4-52.2c62.1-42,102.5-94.5,102.5-94.5l8.3-10.8l-8.3-10.8
	c0,0-40.3-52.5-102.5-94.5C459,146,406.6,122.5,350,122.5L350,122.5z M350,157.5c49.6,0,95.3,21.3,132.5,46.4
	c40.6,27.4,71.1,59.7,85.4,76.1c-14.3,16.4-44.8,48.7-85.4,76.1c-37.2,25.1-82.9,46.4-132.4,46.4c-49.6,0-95.3-21.3-132.4-46.4
	c-40.6-27.4-71.1-59.7-85.4-76.1c14.3-16.4,44.8-48.7,85.4-76.1C254.7,178.8,300.4,157.5,350,157.5z M350,175
	c-56.9,0-103,47.1-103,105s46.2,105,103,105s103-47.1,103-105S406.9,175,350,175z M350,210c37.9,0,68.7,31.4,68.7,70
	s-30.8,70-68.7,70s-68.7-31.4-68.7-70S312.1,210,350,210z"/>
</svg>
